<?xml version="1.0" encoding="UTF-8" standalone="no"?> <svg id="Layer_1" enable-background="new 0 0 511.852 511.852" height="512" viewBox="0 0 511.852 511.852" width="512" xmlns="http://www.w3.org/2000/svg"><g><path d="m255.915 60.905c-78.986 0-143.247 64.261-143.247 143.247 0 37.518 14.411 72.99 40.578 99.883l4.417 4.539h196.502l4.417-4.539c26.169-26.893 40.58-62.365 40.58-99.883 0-78.986-64.261-143.247-143.247-143.247z" fill="#ffd321"/><path d="m255.917 60.905v247.669h98.248l4.417-4.539c26.169-26.893 40.58-62.365 40.58-99.883 0-78.985-64.26-143.246-143.245-143.247z" fill="#ffaf00"/><path d="m511.852 329.422h-115.132l-38.008 50.678v70.846h153.14l-26.557-60.762z" fill="#ff3838"/><path d="m511.852 329.422h-115.132l-38.008 50.678v70.846h153.14l-26.557-60.762z" fill="#c30047"/><path d="m115.132 329.422h-115.132l26.557 60.762-26.557 60.762h153.14v-70.846z" fill="#ff3838"/><circle cx="255.915" cy="204.153" fill="#fff16b" r="90.082"/><path d="m345.997 204.153c0-49.671-40.409-90.082-90.08-90.083v180.165c49.671-.001 90.08-40.41 90.08-90.082z" fill="#ffd321"/><path d="m92.634 278.574h326.586v121.525h-326.586z" fill="#ff6326"/><path d="m255.917 278.574h163.303v121.525h-163.303z" fill="#ff3838"/><g><path d="m240.915 177.029h30v54.247h-30z" fill="#ffd321"/></g><path d="m255.917 177.029h14.998v54.247h-14.998z" fill="#ffaf00"/></g></svg>